<?xml version="1.0" encoding="utf-8"?>
<!-- Generator: Adobe Illustrator 15.0.2, SVG Export Plug-In . SVG Version: 6.00 Build 0)  -->
<!DOCTYPE svg PUBLIC "-//W3C//DTD SVG 1.1//EN" "http://www.w3.org/Graphics/SVG/1.1/DTD/svg11.dtd">
<svg version="1.1" id="Ebene_1" xmlns="http://www.w3.org/2000/svg" xmlns:xlink="http://www.w3.org/1999/xlink" x="0px" y="0px"
	 width="292.676px" height="122.963px" viewBox="0 0 292.676 122.963" enable-background="new 0 0 292.676 122.963"
	 xml:space="preserve">
<g>
	<path fill="#CFD1D2" d="M26.6,49.736h-9.812c-3.738,0-6.78,3.036-6.78,6.774v29.837h5.438V56.676c0-0.788,0.64-1.506,1.343-1.506
		H26.6c0.7,0,1.339,0.718,1.339,1.506v9.646c0,0.74-0.6,1.342-1.339,1.342h-8.029v5.438H26.6c3.738,0,6.777-3.041,6.777-6.779
		v-9.812C33.377,52.772,30.338,49.736,26.6,49.736L26.6,49.736z"/>
	<path fill="#CFD1D2" d="M54.27,49.567h-9.815c-3.735,0-6.773,3.04-6.773,6.778v9.812c0,3.736,3.039,6.774,6.773,6.774h9.815
		c3.738,0,6.777-3.038,6.777-6.774v-9.812C61.047,52.607,58.008,49.567,54.27,49.567L54.27,49.567z M43.115,56.511
		c0-0.774,0.653-1.506,1.34-1.506h9.815c0.689,0,1.343,0.731,1.343,1.506v9.647c0,0.739-0.603,1.341-1.343,1.341h-9.815
		c-0.736,0-1.34-0.602-1.34-1.341V56.511L43.115,56.511z"/>
	<path fill="#CFD1D2" d="M115.277,49.567h-9.815c-3.738,0-6.78,3.04-6.78,6.778v9.812c0,3.736,3.042,6.774,6.78,6.774h14.02v-5.434
		h-14.02c-0.739,0-1.342-0.602-1.342-1.341v-9.812c0-0.739,0.603-1.341,1.342-1.341h10.095c0.74,0,1.339,0.602,1.339,1.341v2.181
		c0,0.738-0.6,1.341-1.339,1.341h-8.292v4.345h8.433c3.338,0,6.197-2.228,6.197-5.65v-2.777
		C121.894,52.357,118.988,49.567,115.277,49.567L115.277,49.567z"/>
	<path fill="#CFD1D2" d="M221.601,49.346H210.95c-3.378,0-6.127,2.752-6.127,6.134v11.478c0,3.382,2.749,6.133,6.127,6.133h13.924
		v-2.772H210.6c-1.803,0-3.008-1.279-3.008-3.185V55.128c0-1.801,1.279-3.01,3.185-3.01h11.005c1.966,0,3.185,1.088,3.185,2.837
		v4.02c0,1.803-1.279,3.016-3.185,3.016H211.68v2.769h9.921c3.386,0,6.138-2.752,6.138-6.134v-3.146
		C227.739,52.098,224.987,49.346,221.601,49.346L221.601,49.346z"/>
	<path fill="#CFD1D2" d="M142.16,49.567h-9.815c-3.738,0-6.777,3.04-6.777,6.778v16.599h5.438V56.676
		c0-0.875,0.796-1.671,1.669-1.671h10.415v-5.438H142.16L142.16,49.567z"/>
	<path fill="#CFD1D2" d="M167.068,49.346h-10.655c-3.382,0-6.134,2.752-6.134,6.134v11.478c0,3.382,2.752,6.133,6.134,6.133h10.655
		c3.381,0,6.13-2.751,6.13-6.133V55.479C173.198,52.098,170.45,49.346,167.068,49.346L167.068,49.346z M167.241,70.317h-11.004
		c-1.906,0-3.188-1.209-3.188-3.012V55.128c0-1.801,1.283-3.01,3.188-3.01h11.004c1.906,0,3.188,1.209,3.188,3.01v12.178
		C170.43,69.108,169.147,70.317,167.241,70.317L167.241,70.317z"/>
	<path fill="#CFD1D2" d="M194.335,49.346H183.68c-3.382,0-6.134,2.752-6.134,6.134v18.097h2.772V55.128
		c0-1.801,1.279-3.01,3.185-3.01h11.004c1.909,0,3.188,1.209,3.188,3.01v18.448h2.772V55.479
		C200.468,52.098,197.716,49.346,194.335,49.346L194.335,49.346z"/>
	<path fill="#CFD1D2" d="M93.341,50.039H88.83v16.235c0,0.739-0.6,1.341-1.336,1.341h-3.848c-1.099-0.012-1.319-0.423-1.353-1.229
		v-16h-5.074v15.96c-0.037,0.943-0.356,1.26-1.326,1.27h-3.848c-0.739,0-1.339-0.602-1.339-1.341V50.039h-5.437v16.119
		c0,3.736,3.039,6.774,6.776,6.774h15.449c3.738,0,6.777-3.038,6.777-6.774V50.039H93.341L93.341,50.039z"/>
	<path fill="#CFD1D2" d="M184.953,36.166l1.709,1.57c6.66-7.244,16.126-11.398,25.967-11.398c19.45,0,35.272,15.821,35.272,35.268
		c0,19.45-15.822,35.274-35.272,35.274c-4.611,0-9.097-0.877-13.331-2.604l-0.879,2.149c4.513,1.843,9.296,2.776,14.21,2.776
		c20.729,0,37.595-16.864,37.595-37.596c0-20.726-16.865-37.59-37.595-37.59C202.138,24.016,192.053,28.443,184.953,36.166
		L184.953,36.166z"/>
	<path fill="#CFD1D2" d="M256.044,37.894c4.052,7.175,6.197,15.344,6.197,23.627c0,8.28-2.146,16.45-6.197,23.621l2.022,1.144
		c4.248-7.521,6.497-16.084,6.497-24.765c0-8.683-2.249-17.249-6.497-24.769L256.044,37.894L256.044,37.894z"/>
	<path fill="#CFD1D2" d="M270.641,30.526c5.364,9.355,8.195,20.028,8.195,30.87c0,10.864-2.842,21.553-8.223,30.911l2.013,1.156
		c5.584-9.709,8.536-20.798,8.536-32.067c0-11.248-2.945-22.321-8.51-32.024L270.641,30.526L270.641,30.526z"/>
</g>
</svg>
